# xmcd
#
# Track frame offsets:
#	150
#	21669
#	41007
#	62665
#	83087
#	99897
#	116660
#	138147
#	157450
#	174575
#	194907
#	205200
#
# Disc length: 2996
#
# Revision: 1
# Processed by: cddbd v1.5.1PL0 Copyright (c) Steve Scherf et al.
# Submitted via: CDex 1.51
# Normalized: r0:DSETVAR1,TDELIM( - )
#
DISCID=ae0bb20c
DTITLE=Various Artist - From The Heart -A collection of songs about love-
DYEAR=1900
DGENRE=Pop
TTITLE0=Say you Will - Robert Palmer
TTITLE1=Mais Feliz - Bebel Gilberto
TTITLE2=One - Anne McCue
TTITLE3=Beat of My Heart - norico
TTITLE4=Faithful - Julian Lennon
TTITLE5=Your Love Is King - cammy
TTITLE6=save A prayer - sylvio Anastacio and simon Le Bon duet
TTITLE7=My Funny Valentine - COLDFEET
TTITLE8=Do You LOVE? - Angela McCluskey
TTITLE9=How Deep Is Your Love - Monday Michiru
TTITLE10=My Island (Lovers Lullaby) - Nick Wood
TTITLE11=Your Song - Dntel featuring Mia Doi Todd
EXTD=
EXTT0=
EXTT1=
EXTT2=
EXTT3=
EXTT4=
EXTT5=
EXTT6=
EXTT7=
EXTT8=
EXTT9=
EXTT10=
EXTT11=
PLAYORDER=
